<mxfile host="app.diagrams.net" modified="2022-07-10T03:48:19.558Z" agent="5.0 (Windows NT 10.0; Win64; x64) AppleWebKit/537.36 (KHTML, like Gecko) Chrome/103.0.5060.114 Safari/537.36 Edg/103.0.1264.49" etag="gf8Xm-mm_6YN5Ywme5HG" version="20.0.4" type="github">
  <diagram id="Uhz8vm19K0oR-O3XVgjD" name="Page-1">
    <mxGraphModel dx="1730" dy="912" grid="1" gridSize="10" guides="1" tooltips="1" connect="1" arrows="1" fold="1" page="1" pageScale="1" pageWidth="827" pageHeight="1169" math="0" shadow="0">
      <root>
        <mxCell id="0" />
        <mxCell id="1" parent="0" />
        <mxCell id="AVClkzIDR-744bb8ecpq-1" value="" style="whiteSpace=wrap;html=1;aspect=fixed;fillColor=#d80073;strokeColor=#A50040;fontColor=#ffffff;" vertex="1" parent="1">
          <mxGeometry x="140" y="395" width="50" height="50" as="geometry" />
        </mxCell>
        <mxCell id="AVClkzIDR-744bb8ecpq-3" value="" style="whiteSpace=wrap;html=1;aspect=fixed;fillColor=#d80073;strokeColor=#A50040;fontColor=#ffffff;" vertex="1" parent="1">
          <mxGeometry x="190" y="395" width="50" height="50" as="geometry" />
        </mxCell>
        <mxCell id="AVClkzIDR-744bb8ecpq-4" value="" style="whiteSpace=wrap;html=1;aspect=fixed;fillColor=#d80073;strokeColor=#A50040;fontColor=#ffffff;" vertex="1" parent="1">
          <mxGeometry x="239" y="395" width="50" height="50" as="geometry" />
        </mxCell>
        <mxCell id="AVClkzIDR-744bb8ecpq-5" value="" style="whiteSpace=wrap;html=1;aspect=fixed;fillColor=#d80073;strokeColor=#A50040;fontColor=#ffffff;" vertex="1" parent="1">
          <mxGeometry x="289" y="395" width="50" height="50" as="geometry" />
        </mxCell>
        <mxCell id="AVClkzIDR-744bb8ecpq-6" value="" style="whiteSpace=wrap;html=1;aspect=fixed;fillColor=#dae8fc;strokeColor=#6c8ebf;" vertex="1" parent="1">
          <mxGeometry x="140" y="465" width="50" height="50" as="geometry" />
        </mxCell>
        <mxCell id="AVClkzIDR-744bb8ecpq-7" value="" style="whiteSpace=wrap;html=1;aspect=fixed;fillColor=#dae8fc;strokeColor=#6c8ebf;" vertex="1" parent="1">
          <mxGeometry x="190" y="465" width="50" height="50" as="geometry" />
        </mxCell>
        <mxCell id="AVClkzIDR-744bb8ecpq-8" value="" style="whiteSpace=wrap;html=1;aspect=fixed;fillColor=#dae8fc;strokeColor=#6c8ebf;" vertex="1" parent="1">
          <mxGeometry x="239" y="465" width="50" height="50" as="geometry" />
        </mxCell>
        <mxCell id="AVClkzIDR-744bb8ecpq-9" value="" style="whiteSpace=wrap;html=1;aspect=fixed;fillColor=#dae8fc;strokeColor=#6c8ebf;" vertex="1" parent="1">
          <mxGeometry x="289" y="465" width="50" height="50" as="geometry" />
        </mxCell>
        <mxCell id="AVClkzIDR-744bb8ecpq-10" value="" style="whiteSpace=wrap;html=1;aspect=fixed;fillColor=#dae8fc;strokeColor=#6c8ebf;" vertex="1" parent="1">
          <mxGeometry x="140" y="535" width="50" height="50" as="geometry" />
        </mxCell>
        <mxCell id="AVClkzIDR-744bb8ecpq-11" value="" style="whiteSpace=wrap;html=1;aspect=fixed;fillColor=#dae8fc;strokeColor=#6c8ebf;" vertex="1" parent="1">
          <mxGeometry x="190" y="535" width="50" height="50" as="geometry" />
        </mxCell>
        <mxCell id="AVClkzIDR-744bb8ecpq-12" value="" style="whiteSpace=wrap;html=1;aspect=fixed;fillColor=#dae8fc;strokeColor=#6c8ebf;" vertex="1" parent="1">
          <mxGeometry x="239" y="535" width="50" height="50" as="geometry" />
        </mxCell>
        <mxCell id="AVClkzIDR-744bb8ecpq-13" value="" style="whiteSpace=wrap;html=1;aspect=fixed;fillColor=#1ba1e2;strokeColor=#006EAF;fontColor=#ffffff;" vertex="1" parent="1">
          <mxGeometry x="289" y="535" width="50" height="50" as="geometry" />
        </mxCell>
        <mxCell id="AVClkzIDR-744bb8ecpq-14" value="" style="whiteSpace=wrap;html=1;aspect=fixed;fillColor=#d80073;strokeColor=#A50040;fontColor=#ffffff;" vertex="1" parent="1">
          <mxGeometry x="339" y="395" width="50" height="50" as="geometry" />
        </mxCell>
        <mxCell id="AVClkzIDR-744bb8ecpq-15" value="" style="whiteSpace=wrap;html=1;aspect=fixed;fillColor=#dae8fc;strokeColor=#6c8ebf;" vertex="1" parent="1">
          <mxGeometry x="339" y="465" width="50" height="50" as="geometry" />
        </mxCell>
        <mxCell id="AVClkzIDR-744bb8ecpq-16" value="" style="whiteSpace=wrap;html=1;aspect=fixed;fillColor=#1ba1e2;fontColor=#ffffff;strokeColor=#006EAF;" vertex="1" parent="1">
          <mxGeometry x="339" y="535" width="50" height="50" as="geometry" />
        </mxCell>
        <mxCell id="AVClkzIDR-744bb8ecpq-17" value="" style="whiteSpace=wrap;html=1;aspect=fixed;fillColor=#d80073;strokeColor=#A50040;fontColor=#ffffff;" vertex="1" parent="1">
          <mxGeometry x="389" y="395" width="50" height="50" as="geometry" />
        </mxCell>
        <mxCell id="AVClkzIDR-744bb8ecpq-18" value="" style="whiteSpace=wrap;html=1;aspect=fixed;fillColor=#0050ef;strokeColor=#001DBC;fontColor=#ffffff;" vertex="1" parent="1">
          <mxGeometry x="389" y="465" width="50" height="50" as="geometry" />
        </mxCell>
        <mxCell id="AVClkzIDR-744bb8ecpq-19" value="" style="whiteSpace=wrap;html=1;aspect=fixed;fillColor=#1ba1e2;fontColor=#ffffff;strokeColor=#006EAF;" vertex="1" parent="1">
          <mxGeometry x="389" y="535" width="50" height="50" as="geometry" />
        </mxCell>
        <mxCell id="AVClkzIDR-744bb8ecpq-20" value="" style="whiteSpace=wrap;html=1;aspect=fixed;fillColor=#0050ef;strokeColor=#001DBC;fontColor=#ffffff;" vertex="1" parent="1">
          <mxGeometry x="190" y="465" width="50" height="50" as="geometry" />
        </mxCell>
        <mxCell id="AVClkzIDR-744bb8ecpq-21" value="" style="whiteSpace=wrap;html=1;aspect=fixed;fillColor=#0050ef;strokeColor=#001DBC;fontColor=#ffffff;" vertex="1" parent="1">
          <mxGeometry x="140" y="465" width="50" height="50" as="geometry" />
        </mxCell>
        <mxCell id="AVClkzIDR-744bb8ecpq-22" value="" style="whiteSpace=wrap;html=1;aspect=fixed;fillColor=#0050ef;strokeColor=#001DBC;fontColor=#ffffff;" vertex="1" parent="1">
          <mxGeometry x="239" y="465" width="50" height="50" as="geometry" />
        </mxCell>
        <mxCell id="AVClkzIDR-744bb8ecpq-23" value="" style="whiteSpace=wrap;html=1;aspect=fixed;fillColor=#0050ef;strokeColor=#001DBC;fontColor=#ffffff;" vertex="1" parent="1">
          <mxGeometry x="289" y="465" width="50" height="50" as="geometry" />
        </mxCell>
        <mxCell id="AVClkzIDR-744bb8ecpq-24" value="" style="whiteSpace=wrap;html=1;aspect=fixed;fillColor=#0050ef;strokeColor=#001DBC;fontColor=#ffffff;" vertex="1" parent="1">
          <mxGeometry x="339" y="465" width="50" height="50" as="geometry" />
        </mxCell>
        <mxCell id="AVClkzIDR-744bb8ecpq-25" value="" style="whiteSpace=wrap;html=1;aspect=fixed;fillColor=#1ba1e2;strokeColor=#006EAF;fontColor=#ffffff;" vertex="1" parent="1">
          <mxGeometry x="140" y="535" width="50" height="50" as="geometry" />
        </mxCell>
        <mxCell id="AVClkzIDR-744bb8ecpq-26" value="" style="whiteSpace=wrap;html=1;aspect=fixed;fillColor=#1ba1e2;strokeColor=#006EAF;fontColor=#ffffff;" vertex="1" parent="1">
          <mxGeometry x="190" y="535" width="50" height="50" as="geometry" />
        </mxCell>
        <mxCell id="AVClkzIDR-744bb8ecpq-27" value="" style="whiteSpace=wrap;html=1;aspect=fixed;fillColor=#1ba1e2;strokeColor=#006EAF;fontColor=#ffffff;" vertex="1" parent="1">
          <mxGeometry x="239" y="535" width="50" height="50" as="geometry" />
        </mxCell>
        <mxCell id="AVClkzIDR-744bb8ecpq-28" value="&lt;i&gt;&lt;b&gt;&lt;font style=&quot;font-size: 18px;&quot;&gt;h&lt;/font&gt;&lt;/b&gt;&lt;/i&gt;" style="text;html=1;strokeColor=none;fillColor=none;align=center;verticalAlign=middle;whiteSpace=wrap;rounded=0;" vertex="1" parent="1">
          <mxGeometry x="60" y="405" width="60" height="30" as="geometry" />
        </mxCell>
        <mxCell id="AVClkzIDR-744bb8ecpq-29" value="&lt;i&gt;&lt;b&gt;&lt;font style=&quot;font-size: 18px;&quot;&gt;r&lt;/font&gt;&lt;/b&gt;&lt;/i&gt;" style="text;html=1;strokeColor=none;fillColor=none;align=center;verticalAlign=middle;whiteSpace=wrap;rounded=0;" vertex="1" parent="1">
          <mxGeometry x="60" y="475" width="60" height="30" as="geometry" />
        </mxCell>
        <mxCell id="AVClkzIDR-744bb8ecpq-30" value="&lt;i&gt;&lt;b&gt;&lt;font style=&quot;font-size: 18px;&quot;&gt;t&lt;/font&gt;&lt;/b&gt;&lt;/i&gt;" style="text;html=1;strokeColor=none;fillColor=none;align=center;verticalAlign=middle;whiteSpace=wrap;rounded=0;" vertex="1" parent="1">
          <mxGeometry x="60" y="545" width="60" height="30" as="geometry" />
        </mxCell>
        <mxCell id="AVClkzIDR-744bb8ecpq-32" value="" style="whiteSpace=wrap;html=1;aspect=fixed;fillColor=#e51400;strokeColor=#B20000;fontColor=#ffffff;" vertex="1" parent="1">
          <mxGeometry x="190" y="130" width="50" height="50" as="geometry" />
        </mxCell>
        <mxCell id="AVClkzIDR-744bb8ecpq-33" value="" style="whiteSpace=wrap;html=1;aspect=fixed;fillColor=#e51400;strokeColor=#B20000;fontColor=#ffffff;" vertex="1" parent="1">
          <mxGeometry x="190" y="180" width="50" height="50" as="geometry" />
        </mxCell>
        <mxCell id="AVClkzIDR-744bb8ecpq-34" value="" style="whiteSpace=wrap;html=1;aspect=fixed;fillColor=#e51400;strokeColor=#B20000;fontColor=#ffffff;" vertex="1" parent="1">
          <mxGeometry x="190" y="230" width="50" height="50" as="geometry" />
        </mxCell>
        <mxCell id="AVClkzIDR-744bb8ecpq-37" value="&lt;i&gt;&lt;b&gt;&lt;font style=&quot;font-size: 18px;&quot;&gt;filter&lt;/font&gt;&lt;/b&gt;&lt;/i&gt;" style="text;html=1;strokeColor=none;fillColor=none;align=center;verticalAlign=middle;whiteSpace=wrap;rounded=0;" vertex="1" parent="1">
          <mxGeometry x="185" y="280" width="60" height="40" as="geometry" />
        </mxCell>
        <mxCell id="AVClkzIDR-744bb8ecpq-39" value="" style="endArrow=classic;html=1;rounded=0;fontSize=18;" edge="1" parent="1">
          <mxGeometry width="50" height="50" relative="1" as="geometry">
            <mxPoint x="280" y="220" as="sourcePoint" />
            <mxPoint x="680" y="340" as="targetPoint" />
            <Array as="points">
              <mxPoint x="540" y="220" />
              <mxPoint x="540" y="340" />
            </Array>
          </mxGeometry>
        </mxCell>
        <mxCell id="AVClkzIDR-744bb8ecpq-40" value="" style="endArrow=none;html=1;rounded=0;fontSize=18;" edge="1" parent="1">
          <mxGeometry width="50" height="50" relative="1" as="geometry">
            <mxPoint x="540" y="480" as="sourcePoint" />
            <mxPoint x="540" y="340" as="targetPoint" />
          </mxGeometry>
        </mxCell>
        <mxCell id="AVClkzIDR-744bb8ecpq-41" value="" style="endArrow=none;html=1;rounded=0;fontSize=18;" edge="1" parent="1">
          <mxGeometry width="50" height="50" relative="1" as="geometry">
            <mxPoint x="460" y="480" as="sourcePoint" />
            <mxPoint x="540" y="480" as="targetPoint" />
          </mxGeometry>
        </mxCell>
        <mxCell id="AVClkzIDR-744bb8ecpq-42" value="" style="whiteSpace=wrap;html=1;aspect=fixed;fillColor=#1ba1e2;strokeColor=#006EAF;fontColor=#ffffff;" vertex="1" parent="1">
          <mxGeometry x="839" y="320" width="50" height="50" as="geometry" />
        </mxCell>
        <mxCell id="AVClkzIDR-744bb8ecpq-43" value="" style="whiteSpace=wrap;html=1;aspect=fixed;fillColor=#ffcccc;strokeColor=#36393d;" vertex="1" parent="1">
          <mxGeometry x="889" y="320" width="50" height="50" as="geometry" />
        </mxCell>
        <mxCell id="AVClkzIDR-744bb8ecpq-44" value="" style="whiteSpace=wrap;html=1;aspect=fixed;fillColor=#ffcccc;strokeColor=#36393d;" vertex="1" parent="1">
          <mxGeometry x="939" y="320" width="50" height="50" as="geometry" />
        </mxCell>
        <mxCell id="AVClkzIDR-744bb8ecpq-45" value="" style="whiteSpace=wrap;html=1;aspect=fixed;fillColor=#1ba1e2;strokeColor=#006EAF;fontColor=#ffffff;" vertex="1" parent="1">
          <mxGeometry x="690" y="320" width="50" height="50" as="geometry" />
        </mxCell>
        <mxCell id="AVClkzIDR-744bb8ecpq-46" value="" style="whiteSpace=wrap;html=1;aspect=fixed;fillColor=#1ba1e2;strokeColor=#006EAF;fontColor=#ffffff;" vertex="1" parent="1">
          <mxGeometry x="740" y="320" width="50" height="50" as="geometry" />
        </mxCell>
        <mxCell id="AVClkzIDR-744bb8ecpq-47" value="" style="whiteSpace=wrap;html=1;aspect=fixed;fillColor=none;" vertex="1" parent="1">
          <mxGeometry x="789" y="320" width="50" height="50" as="geometry" />
        </mxCell>
        <mxCell id="AVClkzIDR-744bb8ecpq-48" value="" style="whiteSpace=wrap;html=1;aspect=fixed;fillColor=#1ba1e2;strokeColor=#006EAF;fontColor=#ffffff;" vertex="1" parent="1">
          <mxGeometry x="690" y="320" width="50" height="50" as="geometry" />
        </mxCell>
        <mxCell id="AVClkzIDR-744bb8ecpq-49" value="" style="whiteSpace=wrap;html=1;aspect=fixed;fillColor=#1ba1e2;strokeColor=#006EAF;fontColor=#ffffff;" vertex="1" parent="1">
          <mxGeometry x="740" y="320" width="50" height="50" as="geometry" />
        </mxCell>
        <mxCell id="AVClkzIDR-744bb8ecpq-50" value="" style="whiteSpace=wrap;html=1;aspect=fixed;fillColor=none;" vertex="1" parent="1">
          <mxGeometry x="690" y="320" width="50" height="50" as="geometry" />
        </mxCell>
        <mxCell id="AVClkzIDR-744bb8ecpq-51" value="" style="whiteSpace=wrap;html=1;aspect=fixed;fillColor=none;" vertex="1" parent="1">
          <mxGeometry x="740" y="320" width="50" height="50" as="geometry" />
        </mxCell>
        <mxCell id="AVClkzIDR-744bb8ecpq-52" value="" style="whiteSpace=wrap;html=1;aspect=fixed;fillColor=none;" vertex="1" parent="1">
          <mxGeometry x="839" y="320" width="50" height="50" as="geometry" />
        </mxCell>
        <mxCell id="AVClkzIDR-744bb8ecpq-53" value="" style="whiteSpace=wrap;html=1;aspect=fixed;fillColor=#ffcccc;strokeColor=#36393d;" vertex="1" parent="1">
          <mxGeometry x="839" y="320" width="50" height="50" as="geometry" />
        </mxCell>
        <mxCell id="AVClkzIDR-744bb8ecpq-54" value="" style="whiteSpace=wrap;html=1;aspect=fixed;fillColor=#ffcccc;strokeColor=#36393d;" vertex="1" parent="1">
          <mxGeometry x="740" y="320" width="50" height="50" as="geometry" />
        </mxCell>
        <mxCell id="AVClkzIDR-744bb8ecpq-55" value="" style="whiteSpace=wrap;html=1;aspect=fixed;fillColor=#ffcccc;strokeColor=#36393d;" vertex="1" parent="1">
          <mxGeometry x="690" y="320" width="50" height="50" as="geometry" />
        </mxCell>
        <mxCell id="AVClkzIDR-744bb8ecpq-56" value="" style="whiteSpace=wrap;html=1;aspect=fixed;fillColor=#ffcccc;strokeColor=#36393d;" vertex="1" parent="1">
          <mxGeometry x="789" y="320" width="50" height="50" as="geometry" />
        </mxCell>
        <mxCell id="AVClkzIDR-744bb8ecpq-57" value="&lt;i&gt;&lt;b&gt;&lt;font style=&quot;font-size: 18px;&quot;&gt;feature map&lt;/font&gt;&lt;/b&gt;&lt;/i&gt;" style="text;html=1;strokeColor=none;fillColor=none;align=center;verticalAlign=middle;whiteSpace=wrap;rounded=0;" vertex="1" parent="1">
          <mxGeometry x="800" y="400" width="60" height="40" as="geometry" />
        </mxCell>
        <mxCell id="AVClkzIDR-744bb8ecpq-59" value="&lt;font style=&quot;font-size: 36px;&quot;&gt;ConvKB:1D Convolution&lt;/font&gt;" style="text;html=1;strokeColor=none;fillColor=none;align=center;verticalAlign=middle;whiteSpace=wrap;rounded=0;fontSize=18;" vertex="1" parent="1">
          <mxGeometry x="330" y="650" width="400" height="30" as="geometry" />
        </mxCell>
      </root>
    </mxGraphModel>
  </diagram>
</mxfile>
